<mxfile host="drawio-plugin" modified="2024-07-15T16:39:42.878Z" agent="Mozilla/5.0 (Windows NT 10.0; Win64; x64) AppleWebKit/537.36 (KHTML, like Gecko) Chrome/122.0.0.0 Safari/537.36" etag="9vlHLsSWy-pNnjzairhN" version="22.1.22" type="embed">
  <diagram id="23iRSUPoRavnBvh4doch" name="Page-1">
    <mxGraphModel dx="1570" dy="1756" grid="1" gridSize="10" guides="1" tooltips="1" connect="1" arrows="1" fold="1" page="1" pageScale="1" pageWidth="1169" pageHeight="827" math="0" shadow="0">
      <root>
        <mxCell id="0" />
        <mxCell id="1" parent="0" />
        <mxCell id="106" style="edgeStyle=elbowEdgeStyle;html=1;exitX=0.5;exitY=0;exitDx=0;exitDy=0;entryX=0.25;entryY=1;entryDx=0;entryDy=0;elbow=vertical;" edge="1" parent="1" source="107" target="113">
          <mxGeometry relative="1" as="geometry">
            <mxPoint x="246.99000000000024" y="-257.3899999999999" as="targetPoint" />
          </mxGeometry>
        </mxCell>
        <mxCell id="107" value="ModeloPropulsivo" style="swimlane;fontStyle=0;childLayout=stackLayout;horizontal=1;startSize=30;horizontalStack=0;resizeParent=1;resizeParentMax=0;resizeLast=0;collapsible=1;marginBottom=0;whiteSpace=wrap;html=1;" vertex="1" parent="1">
          <mxGeometry x="70" y="-176" width="140" height="60" as="geometry" />
        </mxCell>
        <mxCell id="108" style="edgeStyle=elbowEdgeStyle;html=1;exitX=0.5;exitY=0;exitDx=0;exitDy=0;entryX=0.75;entryY=1;entryDx=0;entryDy=0;elbow=vertical;" edge="1" parent="1" source="109" target="113">
          <mxGeometry relative="1" as="geometry">
            <mxPoint x="353.96000000000004" y="-256.19000000000005" as="targetPoint" />
          </mxGeometry>
        </mxCell>
        <mxCell id="109" value="ModeloEstrutural" style="swimlane;fontStyle=0;childLayout=stackLayout;horizontal=1;startSize=30;horizontalStack=0;resizeParent=1;resizeParentMax=0;resizeLast=0;collapsible=1;marginBottom=0;whiteSpace=wrap;html=1;" vertex="1" parent="1">
          <mxGeometry x="390" y="-176" width="140" height="60" as="geometry" />
        </mxCell>
        <mxCell id="110" style="edgeStyle=elbowEdgeStyle;html=1;entryX=0.5;entryY=1;entryDx=0;entryDy=0;elbow=vertical;exitX=0.5;exitY=0;exitDx=0;exitDy=0;" edge="1" parent="1" source="111" target="113">
          <mxGeometry relative="1" as="geometry">
            <mxPoint x="300" y="-190" as="sourcePoint" />
            <mxPoint x="280" y="-280" as="targetPoint" />
          </mxGeometry>
        </mxCell>
        <mxCell id="111" value="ModeloAerodinamico" style="swimlane;fontStyle=0;childLayout=stackLayout;horizontal=1;startSize=30;horizontalStack=0;resizeParent=1;resizeParentMax=0;resizeLast=0;collapsible=1;marginBottom=0;whiteSpace=wrap;html=1;" vertex="1" parent="1">
          <mxGeometry x="230" y="-176" width="140" height="60" as="geometry" />
        </mxCell>
        <mxCell id="112" style="edgeStyle=elbowEdgeStyle;html=1;exitX=0.307;exitY=-0.043;exitDx=0;exitDy=0;entryX=0.25;entryY=1;entryDx=0;entryDy=0;exitPerimeter=0;elbow=vertical;" edge="1" parent="1" source="113" target="121">
          <mxGeometry relative="1" as="geometry" />
        </mxCell>
        <mxCell id="113" value="ModeloFoguete" style="swimlane;fontStyle=0;childLayout=stackLayout;horizontal=1;startSize=30;horizontalStack=0;resizeParent=1;resizeParentMax=0;resizeLast=0;collapsible=1;marginBottom=0;whiteSpace=wrap;html=1;" vertex="1" parent="1">
          <mxGeometry x="205" y="-360" width="190" height="60" as="geometry" />
        </mxCell>
        <mxCell id="114" style="edgeStyle=elbowEdgeStyle;html=1;exitX=0.5;exitY=0;exitDx=0;exitDy=0;entryX=0.25;entryY=1;entryDx=0;entryDy=0;elbow=vertical;" edge="1" parent="1" source="115" target="126">
          <mxGeometry relative="1" as="geometry">
            <mxPoint x="830.6000000000004" y="-315.40999999999985" as="targetPoint" />
          </mxGeometry>
        </mxCell>
        <mxCell id="115" value="ModeloAtmosferico" style="swimlane;fontStyle=0;childLayout=stackLayout;horizontal=1;startSize=30;horizontalStack=0;resizeParent=1;resizeParentMax=0;resizeLast=0;collapsible=1;marginBottom=0;whiteSpace=wrap;html=1;" vertex="1" parent="1">
          <mxGeometry x="630" y="-176" width="140" height="60" as="geometry" />
        </mxCell>
        <mxCell id="116" style="edgeStyle=elbowEdgeStyle;html=1;exitX=0.5;exitY=0;exitDx=0;exitDy=0;entryX=0.75;entryY=1;entryDx=0;entryDy=0;elbow=vertical;" edge="1" parent="1" source="117" target="126">
          <mxGeometry relative="1" as="geometry" />
        </mxCell>
        <mxCell id="117" value="ModeloGravitacional" style="swimlane;fontStyle=0;childLayout=stackLayout;horizontal=1;startSize=30;horizontalStack=0;resizeParent=1;resizeParentMax=0;resizeLast=0;collapsible=1;marginBottom=0;whiteSpace=wrap;html=1;" vertex="1" parent="1">
          <mxGeometry x="950" y="-176" width="140" height="60" as="geometry" />
        </mxCell>
        <mxCell id="118" style="edgeStyle=elbowEdgeStyle;html=1;exitX=0.5;exitY=0;exitDx=0;exitDy=0;entryX=0.5;entryY=1;entryDx=0;entryDy=0;elbow=vertical;" edge="1" parent="1" source="119" target="126">
          <mxGeometry relative="1" as="geometry">
            <mxPoint x="859" y="-320" as="targetPoint" />
          </mxGeometry>
        </mxCell>
        <mxCell id="119" value="ModeloBasedelancamento" style="swimlane;fontStyle=0;childLayout=stackLayout;horizontal=1;startSize=30;horizontalStack=0;resizeParent=1;resizeParentMax=0;resizeLast=0;collapsible=1;marginBottom=0;whiteSpace=wrap;html=1;" vertex="1" parent="1">
          <mxGeometry x="795" y="-176" width="140" height="60" as="geometry" />
        </mxCell>
        <mxCell id="120" style="edgeStyle=elbowEdgeStyle;elbow=vertical;html=1;exitX=0.5;exitY=0;exitDx=0;exitDy=0;entryX=0.25;entryY=1;entryDx=0;entryDy=0;startArrow=classic;startFill=1;" edge="1" parent="1" source="121" target="123">
          <mxGeometry relative="1" as="geometry" />
        </mxCell>
        <mxCell id="121" value="dinamica_foguete" style="swimlane;fontStyle=0;childLayout=stackLayout;horizontal=1;startSize=30;horizontalStack=0;resizeParent=1;resizeParentMax=0;resizeLast=0;collapsible=1;marginBottom=0;whiteSpace=wrap;html=1;" vertex="1" parent="1">
          <mxGeometry x="230" y="-560" width="140" height="60" as="geometry" />
        </mxCell>
        <mxCell id="122" style="edgeStyle=elbowEdgeStyle;elbow=vertical;html=1;exitX=1;exitY=0.5;exitDx=0;exitDy=0;entryX=0;entryY=0.5;entryDx=0;entryDy=0;fontSize=18;startArrow=none;startFill=0;" edge="1" parent="1" source="123" target="127">
          <mxGeometry relative="1" as="geometry" />
        </mxCell>
        <mxCell id="123" value="simulacao" style="swimlane;fontStyle=0;childLayout=stackLayout;horizontal=1;startSize=30;horizontalStack=0;resizeParent=1;resizeParentMax=0;resizeLast=0;collapsible=1;marginBottom=0;whiteSpace=wrap;html=1;" vertex="1" parent="1">
          <mxGeometry x="480" y="-770" width="140" height="60" as="geometry" />
        </mxCell>
        <mxCell id="124" value="resultados" style="swimlane;fontStyle=0;childLayout=stackLayout;horizontal=1;startSize=30;horizontalStack=0;resizeParent=1;resizeParentMax=0;resizeLast=0;collapsible=1;marginBottom=0;whiteSpace=wrap;html=1;" vertex="1" parent="1">
          <mxGeometry x="950" y="-630" width="140" height="60" as="geometry" />
        </mxCell>
        <mxCell id="125" style="edgeStyle=elbowEdgeStyle;html=1;exitX=0.5;exitY=0;exitDx=0;exitDy=0;elbow=vertical;" edge="1" parent="1" source="126" target="121">
          <mxGeometry relative="1" as="geometry">
            <mxPoint x="345.3600000000006" y="-492.40999999999985" as="targetPoint" />
          </mxGeometry>
        </mxCell>
        <mxCell id="126" value="ModeloPlaneta" style="swimlane;fontStyle=0;childLayout=stackLayout;horizontal=1;startSize=30;horizontalStack=0;resizeParent=1;resizeParentMax=0;resizeLast=0;collapsible=1;marginBottom=0;whiteSpace=wrap;html=1;" vertex="1" parent="1">
          <mxGeometry x="790" y="-410" width="150" height="60" as="geometry" />
        </mxCell>
        <mxCell id="127" value="&lt;font style=&quot;font-size: 18px;&quot;&gt;vetor tempo&lt;br&gt;vetor de estados&lt;/font&gt;" style="rounded=0;whiteSpace=wrap;html=1;" vertex="1" parent="1">
          <mxGeometry x="700" y="-780" width="180" height="80" as="geometry" />
        </mxCell>
      </root>
    </mxGraphModel>
  </diagram>
</mxfile>
